{"title":"The Expendables 2010 304p R5 h264 - Wrath","uid":5797037,"size":730513566,"categoryP":"video","categoryS":"movies","magnet":"?xt=urn:btih:e2e3384b937ec23cacf249c6b871dbffab5e3e29&amp;dn=The+Expendables+2010+304p+R5+h264+-+Wrath&amp;tr=udp%3A%2F%2Ftracker.openbittorrent.com%3A80&amp;tr=udp%3A%2F%2Fopen.demonii.com%3A1337&amp;tr=udp%3A%2F%2Ftracker.coppersurfer.tk%3A6969&amp;tr=udp%3A%2F%2Fexodus.desync.com%3A6969","seeders":0,"leechers":0,"uploader":"neon","files":-1,"time":1283097000,"description":" &lt;a href=&quot;http://www.imdb.com/title/tt1320253/&quot; rel=&quot;nofollow&quot; target=&quot;_NEW&quot;&gt;http://www.imdb.com/title/tt1320253/&lt;/a&gt;\n\nRelease Date: 13 August 2010 (USA)\n\nGenre: Action | Adventure | Thriller\n\nPlot: A team of mercenaries head to South America on a mission to overthrow a dictator.\n\nCast:\nSylvester Stallone ... Barney Ross\nJason Statham ... Lee Christmas\nJet Li ... Ying Yang\nDolph Lundgren ... Gunner Jensen\nEric Roberts ... James Munroe\nRandy Couture ... Toll Road\nSteve Austin ... Paine\nDavid Zayas ... General Garza\nGiselle ItiÃƒÂ© ... Sandra\nCharisma Carpenter ... Lacy\nGary Daniels ... The Brit\nTerry Crews ... Hale Caesar\nMickey Rourke ... Tool\nAmin Joseph ... Pirate Leader\nSenyo Amoaku ... Tall Pirate\n\nScreenshots\n &lt;a href=&quot;\nhttp://www.imagebam.com/image/a350f195285499&quot; rel=&quot;nofollow&quot; target=&quot;_NEW&quot;&gt;\nhttp://www.imagebam.com/image/a350f195285499&lt;/a&gt;\n\nFile Name\n\nThe Expendables 2010 304p R5 h264.mp4\n\nFile Size\nFormat : MPEG-4\nFormat profile : Base Media\nCodec ID : isom\nFile size : 697 MiB\nDuration : 1h 39mn\nOverall bit rate : 982 Kbps\n\nVideo\nID : 1\nFormat : AVC\nFormat/Info : Advanced Video Codec\nFormat profile : &lt;a class=&quot;__cf_email__&quot; href=&quot;/cdn-cgi/l/email-protection&quot; data-cfemail=&quot;1a52737d725a562e342b&quot;&gt;[email&amp;#160;protected]&lt;/a&gt;&lt;script data-cfhash='f9e31' type=&quot;text/javascript&quot;&gt;\n/* &lt;![CDATA[ */!function(){try{var t=&quot;currentScript&quot;in document?document.currentScript:function(){for(var t=document.getElementsByTagName(&quot;script&quot;),e=t.length;e--;)if(t[e].getAttribute(&quot;data-cfhash&quot;))return t[e]}();if(t&amp;&amp;t.previousSibling){var e,r,n,i,c=t.previousSibling,a=c.getAttribute(&quot;data-cfemail&quot;);if(a){for(e=&quot;&quot;,r=parseInt(a.substr(0,2),16),n=2;a.length-n;n+=2)i=parseInt(a.substr(n,2),16)^r,e+=String.fromCharCode(i);e=document.createTextNode(e),c.parentNode.replaceChild(e,c)}t.parentNode.removeChild(t);}}catch(u){}}()/* ]]&gt; */&lt;/script&gt;\nFormat settings, CABAC : Yes\nFormat settings, ReFrames : 3 frames\nCodec ID : avc1\nCodec ID/Info : Advanced Video Coding\nDuration : 1h 39mn\nBit rate mode : Variable\nBit rate : 850 Kbps\nMaximum bit rate : 4 454 Kbps\nWidth : 720 pixels\nHeight : 304 pixels\nDisplay aspect ratio : 2.35:1\nOriginal display aspect ratio : 2.35:1\nFrame rate mode : Constant\nFrame rate : 25.000 fps\nResolution : 24 bits\nColorimetry : 4:2:0\nScan type : Progressive\nBits/(Pixel*Frame) : 0.155\nStream size : 603 MiB (87%)\n\nAudio\nID : 2\nFormat : AAC\nFormat/Info : Advanced Audio Codec\nFormat version : Version 4\nFormat profile : LC\nFormat settings, SBR : No\nCodec ID : 40\nDuration : 1h 39mn\nBit rate mode : Variable\nBit rate : 128 Kbps\nMaximum bit rate : 140 Kbps\nChannel(s) : 2 channels\nChannel positions : L R\nSampling rate : 48.0 KHz\nResolution : 16 bits\nStream size : 90.8 MiB (13%)\n\nEnglish SRT : hc english subs below the hc foreign sub when needed\n\nLanguage : English","torrent":{"xt":"urn:btih:e2e3384b937ec23cacf249c6b871dbffab5e3e29","amp;dn":"The+Expendables+2010+304p+R5+h264+-+Wrath","amp;tr":["udp%3A%2F%2Ftracker.openbittorrent.com%3A80","udp%3A%2F%2Fopen.demonii.com%3A1337","udp%3A%2F%2Ftracker.coppersurfer.tk%3A6969","udp%3A%2F%2Fexodus.desync.com%3A6969"],"infoHash":"e2e3384b937ec23cacf249c6b871dbffab5e3e29","infoHashBuffer":{"type":"Buffer","data":[226,227,56,75,147,126,194,60,172,242,73,198,184,113,219,255,171,94,62,41]},"announce":[],"urlList":[]}}